<?xml version="1.0"?>
<svg xmlns="http://www.w3.org/2000/svg" version="1.0" width="512px" height="512px" viewBox="0 0 3029.000000 3029.000000" preserveAspectRatio="xMidYMid meet" class=""><g><g transform="translate(0.000000,3029.000000) scale(0.100000,-0.100000)" fill="#000000" stroke="none">
<path d="M14638 30279 c-3613 -119 -7016 -1504 -9703 -3948 -206 -187 -789 -770 -976 -976 -1707 -1877 -2897 -4093 -3508 -6530 -621 -2481 -599 -5145 65 -7615 496 -1849 1342 -3590 2489 -5125 982 -1314 2177 -2467 3527 -3403 2114 -1464 4560 -2361 7118 -2612 1072 -104 2208 -94 3275 31 5056 591 9485 3703 11770 8269 841 1679 1353 3469 1530 5345 78 833 85 1756 20 2610 -179 2336 -901 4598 -2109 6610 -516 858 -1101 1644 -1790 2405 -193 214 -815 835 -1021 1020 -1242 1116 -2571 1982 -4045 2635 -2081 922 -4349 1360 -6642 1284z m892 -8364 c493 -76 942 -271 1320 -573 114 -91 311 -286 400 -397 110 -135 247 -350 324 -508 113 -231 173 -406 225 -653 l27 -132 100 -75 c314 -237 604 -522 858 -842 94 -119 305 -430 378 -560 316 -558 512 -1168 584 -1815 10 -93 18 -279 21 -518 6 -369 6 -372 27 -376 11 -3 50 -10 84 -16 280 -50 565 -239 724 -481 69 -104 97 -160 136 -270 58 -166 64 -231 60 -759 l-4 -475 -26 -97 c-59 -217 -153 -378 -312 -533 -115 -112 -230 -190 -361 -242 -148 -59 -224 -75 -401 -80 l-162 -6 -47 -146 c-105 -325 -203 -568 -347 -858 -57 -116 -103 -195 -126 -219 -52 -52 -114 -77 -189 -78 -119 0 -222 80 -254 197 -21 78 -8 123 89 318 307 623 479 1215 558 1919 10 91 18 278 21 503 l6 357 -125 0 c-313 0 -710 52 -1061 140 -697 175 -1347 507 -1912 978 -125 105 -484 467 -580 586 -44 54 -89 110 -100 124 l-21 24 -199 -125 c-377 -235 -716 -424 -1135 -631 -920 -457 -1865 -798 -2840 -1026 l-205 -47 -3 -279 c-2 -154 2 -351 8 -439 145 -2148 1535 -4009 3555 -4760 94 -34 231 -81 305 -103 232 -70 201 -68 357 -23 310 90 574 193 908 354 207 101 234 112 285 112 78 0 140 -27 193 -84 51 -55 71 -104 71 -181 1 -67 -39 -155 -86 -195 -40 -34 -317 -173 -516 -259 -210 -91 -474 -185 -698 -250 -294 -84 -283 -83 -427 -47 -382 96 -814 259 -1202 456 -1422 719 -2487 1962 -2990 3489 l-63 191 -158 6 c-172 7 -265 25 -402 80 -327 130 -582 422 -680 776 l-27 98 0 515 c0 503 1 517 23 605 121 475 486 806 973 880 l37 5 5 388 c3 268 10 430 22 527 89 756 333 1429 739 2045 278 422 646 814 1065 1137 l114 88 22 110 c103 514 343 973 702 1345 450 467 1025 746 1688 820 121 13 522 4 645 -15z m-2993 -7775 c23 -10 61 -36 85 -58 186 -171 429 -237 665 -181 86 20 224 94 308 164 98 83 132 98 215 98 142 1 246 -97 258 -240 9 -116 -47 -202 -209 -323 -471 -351 -1128 -321 -1573 72 -107 96 -145 210 -107 322 15 44 81 120 123 142 71 37 157 38 235 4z m4051 4 c18 -7 67 -42 108 -78 87 -74 178 -124 284 -157 96 -30 270 -33 370 -6 98 26 219 91 296 159 86 76 140 101 219 101 149 0 260 -112 259 -263 0 -93 -35 -154 -141 -245 -479 -412 -1203 -397 -1657 34 -70 68 -97 116 -103 192 -18 197 180 340 365 263z m972 -1424 c108 -32 202 -101 264 -195 25 -36 128 -293 315 -782 153 -400 286 -746 295 -768 12 -30 210 -233 765 -790 412 -412 757 -765 766 -783 42 -86 24 -210 -43 -284 -75 -84 -203 -112 -302 -67 -35 15 -201 176 -723 697 l-677 677 -302 -302 -303 -303 527 -527 c401 -402 532 -539 547 -573 46 -101 17 -238 -64 -309 -53 -46 -100 -64 -170 -64 -118 -1 -101 -15 -765 648 l-605 604 -740 306 c-407 168 -761 320 -787 336 -135 87 -228 258 -228 420 0 159 96 479 220 734 310 637 898 1120 1582 1300 225 59 296 63 428 25z m2955 -3874 c60 -28 127 -99 143 -154 54 -178 -70 -346 -253 -345 -147 1 -255 112 -255 264 0 114 65 206 173 246 55 20 136 15 192 -11z" data-original="#000000" class="active-path" data-old_color="#00441b" fill="#00441b"/>
<path d="M14885 21399 c-473 -60 -908 -268 -1249 -599 -135 -132 -210 -221 -309 -370 -65 -98 -197 -350 -197 -377 0 -7 40 7 95 33 926 432 2033 536 3039 284 275 -69 665 -208 856 -305 28 -14 50 -21 50 -15 0 6 -20 53 -44 104 -319 684 -969 1153 -1726 1246 -99 12 -415 11 -515 -1z" data-original="#000000" class="active-path" data-old_color="#00441b" fill="#00441b"/>
<path d="M14850 19969 c-976 -70 -1907 -500 -2606 -1205 -635 -640 -1027 -1439 -1155 -2354 -20 -141 -22 -208 -26 -752 l-5 -596 104 24 c1683 396 3321 1165 4696 2203 106 80 217 163 245 184 179 130 417 10 417 -210 0 -69 -19 -125 -57 -170 -22 -26 -263 -213 -440 -341 -73 -53 -133 -100 -133 -105 0 -5 33 -48 72 -96 518 -616 1173 -1064 1918 -1311 341 -113 738 -189 1065 -205 66 -3 159 -8 208 -11 l87 -5 0 530 c0 291 -5 588 -11 658 -31 385 -113 752 -250 1123 -68 182 -258 565 -364 729 -295 461 -660 849 -1090 1156 -776 556 -1722 822 -2675 754z m2247 -1865 c197 -95 187 -381 -17 -473 -59 -27 -160 -28 -215 -2 -50 23 -100 72 -128 125 -30 58 -30 174 0 231 40 75 108 127 198 149 37 8 109 -5 162 -30z" data-original="#000000" class="active-path" data-old_color="#00441b" fill="#00441b"/>
<path d="M10433 14911 c-146 -53 -280 -170 -346 -301 -66 -133 -67 -145 -67 -623 0 -479 2 -494 68 -622 43 -82 161 -207 237 -249 28 -15 82 -38 120 -51 75 -25 191 -37 188 -20 -86 513 -103 746 -103 1402 l0 483 -22 0 c-13 -1 -46 -9 -75 -19z" data-original="#000000" class="active-path" data-old_color="#00441b" fill="#00441b"/>
<path d="M19767 14368 c-6 -641 -20 -836 -88 -1217 -11 -62 -18 -115 -16 -117 9 -10 150 17 211 40 93 35 162 83 237 164 71 77 118 161 146 263 16 57 18 112 18 484 0 468 -1 475 -67 614 -56 118 -159 221 -278 279 -47 23 -101 44 -121 48 l-37 6 -5 -564z" data-original="#000000" class="active-path" data-old_color="#00441b" fill="#00441b"/>
<path d="M17230 12175 c-671 -196 -1191 -738 -1350 -1409 -12 -48 -20 -89 -18 -90 2 -2 298 -125 658 -274 l655 -271 367 367 368 367 -257 673 c-248 647 -258 672 -283 672 -14 -1 -77 -16 -140 -35z" data-original="#000000" class="active-path" data-old_color="#00441b" fill="#00441b"/>
</g></g> </svg>
